<svg id="Capa_1" data-name="Capa 1" xmlns="http://www.w3.org/2000/svg" viewBox="0 0 359.84 271.2"><defs><style>.cls-1{fill:#f49523;}.cls-2{fill:none;}.cls-3{fill:#ffcf1a;stroke:#314897;stroke-miterlimit:10;stroke-width:3px;}</style></defs><title>logotipo2</title><path class="cls-1" d="M94.18,143.75c.55-5.3.83-10.64,1.74-15.87,1.19-6.77,2.9-13.45,4.35-20.17.2-.94.62-2.21.2-2.83-2.28-3.32-.47-5.8,1.28-8.47,3.72-5.67,8-11.11,10.77-17.21,2.51-5.48,5-10.53,9.61-14.63,2.66-2.35,4.2-6,6.21-9,1.52-2.32,1.25-4.5-.26-6.81-2.72-4.16-1.83-6.51,3.69-9.19,1.55,5.25,3,10.46,4.64,15.58,2.71,8.22,5,16.64,8.56,24.52,4.39,9.8,13.36,15.15,22.45,20a8.26,8.26,0,0,1,2.32,1.3c4.32,5,8.77,2.49,13.19.27a2.49,2.49,0,0,0,1-1.57c.77-3.35,1.47-6.71,2.19-10.07l-.09.11c3.35-8.32,6.13-16.94,10.25-24.86,3.28-6.32,8.19-11.78,12.66-18-1.19-.54-3-1.46-4.86-2.21-2.16-.87-4.52-1.36-6.54-2.48a6.38,6.38,0,0,1-2.74-3.41c-.81-2.61.23-3.63,2.88-2.94,7.85,2,15.67,4.25,23.5,6.39a3.59,3.59,0,0,0,1,.26,19.09,19.09,0,0,1,16,7.67A5.85,5.85,0,0,0,242.21,52c3.83,0,6.64,1.57,9.58,3.93,2.46,2,2.88,3.83,1.25,5.86-1.78,2.23-4.24,3.92-6.35,5.8-.77-.71-1-.84-1.07-1-1-5-4.38-5.62-8.91-5.62-3.8,0-7.56-1.82-11.4-2.31-2.2-.29-4.56.35-6.79.82-.54.12-.87,1.24-.94,2.43,3.79-3,7.29-1.75,10.95-.44a86.52,86.52,0,0,0,8.5,2.11l-.78,3c3.7.11,8.33-2.64,9.74,3.41-5.47,3.63-11.11,2-16.8,1.06a115.51,115.51,0,0,0-14.14-1.39c-1.54-.05-3.13,1.22-4.7,1.88l.49,1.28,6.36-2.49c-3.89,5.61-6.37,11.09-6.77,17.26a37.81,37.81,0,0,0,.15,8.31c.53,3.3,1.88,5.93,5.49,7.6,4.55,2.1,8.56,5.35,12.81,8.1l-.46.72L217,105.92c-.19-.1-.38-.23-.58-.33-8.49-4.28-14.46-2.13-17.28,7.15-1.88,6.22-2.59,12.82-3.51,19.29a100,100,0,0,0-.4,10.51c6.41,1.45,12.26,3.67,17.24,7.81,6.37,5.3,10.85,12.07,14.92,19.12,1.23,2.13,2.48,3.47,5.06,3.57,5.78.22,10.38,3,14.41,7,2.64,2.56,5.33,5.07,7.87,7.74a36.94,36.94,0,0,1,3.07,4.47l-8.48-1c.4,1,.48,1.88,1,2.19,3.47,2.24,6.65,4.53,11.32,4.65,33.85.83,66.94-29.16,73.52-61.32,4.79-23.43.65-45.69-12.09-66.07-10.83-17.33-27-28.32-45-37-2.56-1.22-5-2.7-7.5-4.06a12.47,12.47,0,0,1,2.9.49c7.15,3.06,14.46,5.82,21.36,9.37,28.93,14.85,45.87,38.27,49.78,70.79a7.38,7.38,0,0,0,.86,2l.6,11.37a20.73,20.73,0,0,0-.55,2.87,91.49,91.49,0,0,1-7,32.13c-10.2,23.67-28,38.93-52.32,46.63-6.12,1.93-12.52,3-18.8,4.4l-12.71.67a26.07,26.07,0,0,0-3.27-.49,92.34,92.34,0,0,1-32.8-6.93,67.5,67.5,0,0,1-41.95-65.17c.05-1.5.07-3,.12-5.15-4.19,3.84-3.57,10.61-9.28,12.28l-5.46-17.14c-6.24,13.88-11.13,27.69-5.15,43-5.42-2.19-11.38-14.59-10.2-21.25l3.28,8.87c3.33-11.74,6.49-22.88,9.73-34.32,7.1,4.21,5.47,11.95,8.49,17.8a35.76,35.76,0,0,0,9.71-21.79c-3.05.35-5.82,1.06-8.53.9-7.17-.41-12.28,2.37-15.4,8.82a1.71,1.71,0,0,1-.32.58c-1.78,1.55-1.39,3-.81,5.23.68,2.57.06,5.59-.49,8.32-.17.87-1.94,1.42-3,2.11a30.51,30.51,0,0,1-1.06-2.9,11.18,11.18,0,0,1-.14-2.1l-1.12-.29a26.42,26.42,0,0,1-2,4.77c-.75,1.16-2.11,2.68-3.16,2.65s-2.21-1.75-2.78-3c-.49-1.07-.22-2.49-.29-3.76l-1.2-.52a41.18,41.18,0,0,1-3.4,4.32c-.75.74-2.17,1.59-2.94,1.33a3.77,3.77,0,0,1-2.26-2.64,7.35,7.35,0,0,1,1.33-4.61c2-2.54,1.33-4.5-.69-6.31s-4.13-3.33-6.15-4.93c-7.49,5.81-16.94,20.52-19.33,29.77-1.63,6.28-2.41,12.44,1.13,18.44.87,1.47,1.08,3.32,1.59,5-5.28-3.3-7.92-8.08-9.49-13.5-1-3.3-1.71-6.65-2.56-10Zm80.9-32.7c-2.88-4.91-7.84-7.66-12.79-10.47-4.34-2.47-9.46-4.37-12.59-8-4.29-4.92-7-11.2-10.43-16.9-1.47-2.46-2.93-4.93-4.41-7.4-1.1-1.82-2.33-1.44-3.89-.44a59.08,59.08,0,0,0-21.29,24c-10.91,22-11.68,45.43-9,69.25,0,.09.38.14,1.44.52.73-16,11.16-26.46,21.23-37.9,2.68,2.83,5.17,5.33,7.5,8a4.55,4.55,0,0,0,5.54,1.48c6.77-2.18,10.64-7.31,14.35-12.86a10.19,10.19,0,0,1,4.89-4C161.94,114.34,168.42,112.82,175.08,111.05Zm58.37,88.49.38-.73-4.25-4.19,1.36-2.1c-2-.26-3.94-.09-5.46-.77-6.7-3-13.36-6.13-19.92-9.44-11.35-5.73-20.71-13.18-22.46-27-.14-1.17-1.2-2.22-1.83-3.32l-1.34.61c1.58,4.81,2.71,9.83,4.83,14.4,4,8.48,11.43,13.38,19.48,17.51s16.14,8.45,24.22,12.65C230.1,198,231.79,198.76,233.45,199.54Zm19.5-2.13a76,76,0,0,0-6.91-5.15c-.8-.48-2.32.24-3.5.42.34,1.39.23,3.28,1.11,4.07C246.12,199,249.25,199,253,197.41ZM232.38,53.31l.42-.74-3.44-4c-3.38-3.92-3.53-3.92-7.35.38C225.57,50.46,229,51.88,232.38,53.31ZM246.63,203.9l-7.49-7.25C238.35,201.64,240.84,203.79,246.63,203.9ZM246,184.63c.08,4.81,3.4,4.25,6.52,5C251.13,186.46,249.59,184.55,246,184.63ZM184,114.43l1,.07c2.23-5.07,2.23-5.07,0-6.22C184.69,110.43,184.36,112.43,184,114.43Z" transform="translate(-22.34 -10.11)"/><path class="cls-1" d="M235.36,10.11c5.25,1.16,10.53,2.22,15.75,3.53a12.15,12.15,0,0,1,4.77,2.4,27.68,27.68,0,0,1,4.62,5.21,24.3,24.3,0,0,0,10.18,8.5l-4.8-.26-.12.44c4.44,1.95,8.93,3.79,13.31,5.86,13.25,6.29,25,14.55,34,26.34A72.36,72.36,0,0,1,327,95.74c2,13,1.8,26-1.83,38.8-4.7,16.54-13.82,29.66-30,36.75-9.8,4.29-20.24,5.14-30.85,4.09a51.46,51.46,0,0,1-18.59-5c-1.77-.9-4-1-6.24-1.44a42.69,42.69,0,0,0,5.6-24.13c-.68-8.75-3.77-16.65-8.46-24.06,3.55,3.32,7,6.73,10.67,9.94,5,4.41,10.22,8.6,15.19,13.06a4.9,4.9,0,0,1,1.56,3.7c-.83,5.34-1.85,10.67-3.2,15.9a4,4,0,0,0,.75,4.09c4.38,5.84,9.78,6.27,16.52,4.85,17-3.58,30.88-11.44,39.61-26.86A60.2,60.2,0,0,0,324.89,122,91,91,0,0,0,321,83c-5.33-16.06-15.72-28.23-29.45-37.75-9.62-6.67-20.28-11.13-31.36-14.68-2.54-.82-4.65-1-6.09,2-1.08,2.29-3.28,2.24-4.5.21-2.27-3.77-5.25-3-8.45-1.94-.95.31-1.86.77-2.82,1-2.27.6-4.08.64-5.55-2-2.59-4.61-6.64-5.6-11.55-3l-1-3a2.94,2.94,0,0,0-1,.07c-2.18,1.1-4.3,2.35-6.54,3.34-3.27,1.44-6.54,2-9.95.08-.71-.4-2.13.38-3.19.72-1.21.4-2.42,1.34-3.58,1.28-1.8-.1-3.57-.86-5.9-1.48,3.47-2.87,6.34-6.31,10-8s8-1.44,12.33-2.09L211,14.41c6-.73,12.37.73,17-3.91Z" transform="translate(-22.34 -10.11)"/><path class="cls-1" d="M186.1,89.62c-1.36,2.77-2.54,5.64-4.12,8.28-3,5.08-5.81,5.86-10.69,2.71-6.44-4.16-12.93-8.33-18.93-13.08-6.26-5-5.8-9.91.56-14.71,4.23-3.18,8.42-6.4,8.13-12.56,0-.5.61-1.12,1.07-1.55,5.15-4.75,10.37-9.43,15.45-14.26A8.44,8.44,0,0,0,179.25,41c.75-2.21,1-4.67,2.11-6.64.7-1.24,2.79-2.68,4-2.46A3.7,3.7,0,0,1,188.23,37c-.64,1.87-2,3.48-2.72,5.34-1.26,3.27-3.07,6.62-3.18,10-.25,7.33.4,14.69.73,22a4.06,4.06,0,0,0,.49,1.92A19.18,19.18,0,0,1,186,89.73,1,1,0,0,0,186.1,89.62ZM173,57.83c-.79,8.58-1.54,16.82-2.28,24.88C174.31,77.75,176.24,60,173,57.83Zm1.25,20.63c-.09,3.66-.35,7.36,2.65,10.2C176.28,85.19,177.08,81.35,174.25,78.46Z" transform="translate(-22.34 -10.11)"/><path class="cls-1" d="M152.59,62.63c.78-5.12,1.49-9.81,2.21-14.51.07-.42.1-1,.37-1.22,2.77-2.32,5.59-4.57,8.83-7.2-.38,4.69-1.57,8.18-5.89,9.79C160.13,55.58,156.26,59,152.59,62.63Z" transform="translate(-22.34 -10.11)"/><path class="cls-1" d="M171.86,36l-4.14-3.17,19-8.08C184.09,29.4,177.76,34,171.86,36Z" transform="translate(-22.34 -10.11)"/><path class="cls-2" d="M253,197.41c-3.7,1.55-6.83,1.54-9.3-.66-.88-.79-.77-2.68-1.11-4.07,1.18-.18,2.7-.9,3.5-.42A76,76,0,0,1,253,197.41Z" transform="translate(-22.34 -10.11)"/><path class="cls-2" d="M232.38,53.31C229,51.88,225.57,50.46,222,49c3.82-4.3,4-4.3,7.35-.38l3.44,4Z" transform="translate(-22.34 -10.11)"/><path class="cls-2" d="M246.63,203.9c-5.79-.11-8.28-2.26-7.49-7.25Z" transform="translate(-22.34 -10.11)"/><path class="cls-2" d="M246,184.63c3.64-.08,5.18,1.83,6.52,5C249.35,188.88,246,189.44,246,184.63Z" transform="translate(-22.34 -10.11)"/><path class="cls-2" d="M184,114.43c.34-2,.67-4,1-6.15,2.2,1.15,2.2,1.15,0,6.22Z" transform="translate(-22.34 -10.11)"/><path class="cls-2" d="M173,57.83c3.24,2.14,1.31,19.92-2.28,24.88C171.46,74.65,172.21,66.41,173,57.83Z" transform="translate(-22.34 -10.11)"/><path class="cls-2" d="M174.25,78.46c2.83,2.89,2,6.73,2.65,10.2C173.9,85.82,174.16,82.12,174.25,78.46Z" transform="translate(-22.34 -10.11)"/><path class="cls-1" d="M126.86,104.78c.15-3.55.38-7.1.43-10.65.09-5.79,0-11.58.12-17.37a7.29,7.29,0,0,1,.8-2.21c.55.53,1.54,1,1.59,1.59.81,9.14.82,18.26-1.53,27.24a8.25,8.25,0,0,1-.67,1.45Z" transform="translate(-22.34 -10.11)"/><path class="cls-1" d="M132.59,91.3l3.56,23.86C133.28,112.81,130.55,98.19,132.59,91.3Z" transform="translate(-22.34 -10.11)"/><path class="cls-2" d="M336.28,110.08l1.39-4c1.36,1,1.36,1-.72,4.2Z" transform="translate(-22.34 -10.11)"/><path class="cls-2" d="M212.67,180.22c3.33.22,4.59,2.1,5.54,5.1C215.42,184.38,212.35,184.63,212.67,180.22Z" transform="translate(-22.34 -10.11)"/><path class="cls-3" d="M24.45,158.17q4.83-1.59,9.07-2.95t8.95-2.57c3.13-.81,6.13-1.46,9-1.93a39.94,39.94,0,0,1,6.78-.56,53.72,53.72,0,0,1,7.57.32,20.49,20.49,0,0,1,5.12,1.67,15.08,15.08,0,0,1,4.31,3.09,16,16,0,0,1,3.09,4.56,5.7,5.7,0,0,1,.47,2.27q0,4.47-4.88,11a100,100,0,0,1-9.8,11.4q-4.92,4.86-7.35,7L64,216.59l-10.44,7.54-18.3-52.25a4.13,4.13,0,0,0-.75.76l-1.78,2c-.73.81-1.19,1.31-1.37,1.49a6.32,6.32,0,0,1-.78-1.71q-.66-1.71-1.75-4.76c-.73-2-1.56-4.29-2.47-6.78S24.77,158.81,24.45,158.17Zm25.79,11.08L53.51,181q2.46-2.5,6.13-6.85t3.67-6.3a.76.76,0,0,0-.64-.87,16,16,0,0,0-3.54-.4A14.58,14.58,0,0,0,50.24,169.25Z" transform="translate(-22.34 -10.11)"/><path class="cls-3" d="M108.74,178.33a12.91,12.91,0,0,1,4.61,4.09,18,18,0,0,1,2.59,5.78,27.14,27.14,0,0,1,.82,6.67,33.22,33.22,0,0,1-.46,5.54,30.05,30.05,0,0,1-1.26,4.91,16,16,0,0,1-1.87,3.78,38.17,38.17,0,0,1-5.38,6.46,28.88,28.88,0,0,1-5.86,4.36A26.26,26.26,0,0,1,96,222.35a22.42,22.42,0,0,1-5.8.78,19.32,19.32,0,0,1-6.43-1.06,17,17,0,0,1-5.2-2.77,19.24,19.24,0,0,1-5.54-8,28.27,28.27,0,0,1-2-10.58q0-9.6,5.54-15.5a35.8,35.8,0,0,1,9.81-7.63,22.52,22.52,0,0,1,10.36-2.57,23.18,23.18,0,0,1,6,.77A28,28,0,0,1,108.74,178.33Zm-2.35,6.7a11,11,0,0,1-2.93,5.34,6.36,6.36,0,0,1-4.4,2.31,3.3,3.3,0,0,1-1.91-.56,4,4,0,0,1-1.2-3.34,6.4,6.4,0,0,1,1.22-3.63,8,8,0,0,1,3.84-2.83,13.29,13.29,0,0,0-5.08,1,14.21,14.21,0,0,0-4.2,2.57,13,13,0,0,0-2.81,3.54,8.3,8.3,0,0,0-1.06,4,6.7,6.7,0,0,0,3.43,5.9,11.36,11.36,0,0,0,6.06,2,7.47,7.47,0,0,0,5-1.89,12.2,12.2,0,0,0,3.35-4.87,16,16,0,0,0,1.15-5.87A13.3,13.3,0,0,0,106.39,185Z" transform="translate(-22.34 -10.11)"/><path class="cls-3" d="M110.14,154.9l20.25-8.49v13.07l10.76-11.43,13.71,11.43-19.57,28.38,40.81,31.36,1,16-41.44-22.52,1,19.57-19,.36-3.58-69.23-5.86,1.31Z" transform="translate(-22.34 -10.11)"/><path class="cls-3" d="M195,199.46l9.6,11.59c-.77,2.24-2.59,4.28-5.48,6.14a36.51,36.51,0,0,1-10.28,4.41,45.58,45.58,0,0,1-11.9,1.61,29.51,29.51,0,0,1-9.38-1.39,13.24,13.24,0,0,1-6.36-4.23q-3.85-4.86-3.86-12.43a33.3,33.3,0,0,1,2.17-11.78q2.18-5.81,4.6-8.11a29.66,29.66,0,0,1,6.32-4.58,30.12,30.12,0,0,1,7.07-2.75,30.59,30.59,0,0,1,7.54-.92,28.78,28.78,0,0,1,9.62,1.61,23.65,23.65,0,0,1,8,4.69l-21.88,26.1a12.78,12.78,0,0,0,5.52-1.22,16.26,16.26,0,0,0,4.8-3.46A25.48,25.48,0,0,0,195,199.46Zm-11-9.29a8.73,8.73,0,0,0-4-1,10.39,10.39,0,0,0-4.16.88,6.71,6.71,0,0,0-2.85,2.07,11.2,11.2,0,0,0-2.47,7,12.21,12.21,0,0,0,.28,2.67c.18.85.5,2,.95,3.51Z" transform="translate(-22.34 -10.11)"/><path class="cls-3" d="M247,215.21a52.78,52.78,0,0,1,5,15.88,54.93,54.93,0,0,1,.58,7.92,47.66,47.66,0,0,1-1.87,13.42A39.58,39.58,0,0,1,245.33,264a29.57,29.57,0,0,1-8.47,8.26,25.76,25.76,0,0,1-11,3.9l-16.77,3-5.63-51.7c-.18,0-.84.71-2,2.13s-1.78,2.13-2,2.13c-.59-.4-1.1-1.54-1.54-3.42s-1.08-4.8-1.89-8.76a47.32,47.32,0,0,0-1.83-7.24q9.28-3,17.49-4.88A68.71,68.71,0,0,1,227,205.48Q242.23,205.48,247,215.21Zm-15.8,7.23a17.33,17.33,0,0,0-5.3-1.16,8.91,8.91,0,0,0-5.27,1.81l2,36.58q6.79-2.93,9.07-5.81a14.07,14.07,0,0,0,2.75-4.76,19.62,19.62,0,0,0,.82-4.38,63.84,63.84,0,0,0,.43-7.8,39.32,39.32,0,0,0-1-9.63C234,224.62,232.81,223,231.17,222.44Z" transform="translate(-22.34 -10.11)"/><path class="cls-3" d="M276.44,231l16.81-7.56.32,22.47a30.87,30.87,0,0,1,.32,4.75,26.28,26.28,0,0,1-.16,3.45l.48,24.65-18.09,1v-2.45a23.31,23.31,0,0,1-8.92,1.81,19.77,19.77,0,0,1-6.5-1,17.15,17.15,0,0,1-5.24-2.81,19.58,19.58,0,0,1-5.59-8,28.55,28.55,0,0,1-2-10.67q0-9.69,5.59-15.64a37.09,37.09,0,0,1,9.95-7.68,22.71,22.71,0,0,1,10.47-2.62c1,0,1.74,0,2.25.08Zm-.32,7.07a12.94,12.94,0,0,0-4.36,1.41,15,15,0,0,0-3.68,2.65,12,12,0,0,0-2.39,3.36,8.34,8.34,0,0,0-.87,3.6,6.91,6.91,0,0,0,3.46,6,11.07,11.07,0,0,0,6.19,2.05,12.43,12.43,0,0,0,1.65-.16v-8.57a3.39,3.39,0,0,1-1.93-.56c-.8-.64-1.2-1.87-1.2-3.7A6.82,6.82,0,0,1,276.12,238.08Z" transform="translate(-22.34 -10.11)"/><path class="cls-3" d="M327.82,224.41l2.3,54h-2.46c-1.6,0-3.64-.06-6.11-.16s-4.7-.25-6.71-.51a18.27,18.27,0,0,1-4.46-1l-2.66-51.74-25,.36.36-15.84,64.2-4.26,1,17.44Z" transform="translate(-22.34 -10.11)"/><path class="cls-3" d="M362.88,231l16.81-7.56.32,22.47a32.18,32.18,0,0,1,.32,4.75,26.28,26.28,0,0,1-.16,3.45l.48,24.65-18.09,1v-2.45a23.31,23.31,0,0,1-8.92,1.81,19.77,19.77,0,0,1-6.5-1,17.15,17.15,0,0,1-5.24-2.81,19.58,19.58,0,0,1-5.59-8,28.55,28.55,0,0,1-2-10.67q0-9.69,5.59-15.64a37.09,37.09,0,0,1,9.95-7.68,22.68,22.68,0,0,1,10.47-2.62c1,0,1.74,0,2.25.08Zm-.32,7.07a12.94,12.94,0,0,0-4.36,1.41,14.83,14.83,0,0,0-3.68,2.65,11.83,11.83,0,0,0-2.39,3.36,8.34,8.34,0,0,0-.87,3.6,6.91,6.91,0,0,0,3.46,6,11.07,11.07,0,0,0,6.19,2.05,12.74,12.74,0,0,0,1.65-.16v-8.57a3.36,3.36,0,0,1-1.93-.56c-.8-.64-1.21-1.87-1.21-3.7A6.83,6.83,0,0,1,362.56,238.08Z" transform="translate(-22.34 -10.11)"/></svg>