<svg id="Capa_1" data-name="Capa 1" xmlns="http://www.w3.org/2000/svg" viewBox="0 0 309.17 245.6"><defs><style>.cls-1{fill:#fff;}.cls-2{fill:none;}</style></defs><title>logotipo2solo</title><path class="cls-1" d="M55.69,186.94c.36-6.55.38-13.15,1.19-19.65,1-8.42,2.76-16.75,4.14-25.12.19-1.17.63-2.76.07-3.5-3-4-.92-7.12,1.07-10.52C66.4,121,71.33,114,74.4,106.3c2.75-6.91,5.48-13.28,11-18.62,3.13-3,4.81-7.6,7.11-11.5,1.73-2.94,1.26-5.62-.74-8.37-3.59-5-2.65-7.91,4-11.55C98,62.64,100,69,102.39,75.18c3.83,10,7.2,20.21,12,29.7,6,11.82,17.38,17.86,28.88,23.36,1,.47,2.22.71,2.93,1.45,5.63,5.84,11,2.55,16.28-.45a3.08,3.08,0,0,0,1.1-2c.76-4.17,1.41-8.36,2.09-12.55l-.1.15c3.63-10.46,6.54-21.25,11.13-31.26,3.66-8,9.39-15,14.52-22.95-1.5-.6-3.77-1.61-6.12-2.42-2.72-1-5.66-1.41-8.21-2.67a7.92,7.92,0,0,1-3.59-4c-1.14-3.17.07-4.49,3.37-3.79,9.81,2,19.57,4.29,29.35,6.46a5,5,0,0,0,1.21.26,23.52,23.52,0,0,1,20.13,8.49A7.3,7.3,0,0,0,232.57,65c4.72-.22,8.28,1.54,12.05,4.26,3.14,2.27,3.77,4.55,1.89,7.15-2.06,2.85-5,5.09-7.48,7.53-1-.83-1.32-1-1.38-1.19-1.58-6.08-5.73-6.66-11.32-6.39-4.68.22-9.42-1.78-14.18-2.16-2.73-.22-5.6.71-8.32,1.43-.66.17-1,1.57-1,3,4.49-3.89,8.88-2.59,13.47-1.2a106.67,106.67,0,0,0,10.59,2.09l-.77,3.69c4.56-.08,10.09-3.75,12.21,3.61-6.53,4.81-13.58,3.12-20.65,2.33a142.21,142.21,0,0,0-17.51-.86c-1.9,0-3.78,1.69-5.68,2.6l.69,1.55L202.86,89c-4.46,7.15-7.18,14-7.3,21.68a46,46,0,0,0,.68,10.23c.85,4,2.67,7.19,7.23,9,5.72,2.32,10.87,6.08,16.26,9.22l-.52.91-14.41-7.14c-.25-.13-.48-.27-.74-.38-10.71-4.77-17.95-1.75-20.86,9.86-1.94,7.77-2.42,15.94-3.17,24-.38,4.21.07,8.5.15,13,8,1.39,15.32,3.78,21.72,8.59,8.17,6.14,14.09,14.21,19.53,22.65,1.65,2.55,3.27,4.13,6.46,4.1,7.13-.08,13,3.12,18.17,7.7,3.4,3,6.88,5.94,10.16,9.07,1.39,1.32,2.37,3.07,4.06,5.33l-10.5-.67c.55,1.16.7,2.28,1.3,2.63,4.41,2.55,8.48,5.19,14.24,5.05,41.76-1,80.73-40,86.89-80,4.49-29.16-1.95-56.34-18.88-80.69-14.39-20.7-35-33.27-57.7-42.84-3.22-1.35-6.32-3-9.48-4.55a15.63,15.63,0,0,1,3.6.43c9,3.34,18.17,6.3,26.89,10.25,36.54,16.56,58.83,44.4,65.61,84.24a9,9,0,0,0,1.18,2.37l1.43,14a24.33,24.33,0,0,0-.5,3.57c0,13.7-1.82,27.1-6.65,40-11.13,29.79-32.1,49.66-61.65,60.62-7.43,2.75-15.26,4.4-22.9,6.55l-15.63,1.6a34.9,34.9,0,0,0-4.06-.41,114.19,114.19,0,0,1-40.84-6.56c-33.28-12-55-42.28-55.62-77.78,0-1.85-.1-3.69-.17-6.36-4.93,5-3.75,13.3-10.7,15.7-2.72-7.3-5.24-14-7.75-20.79-6.86,17.47-12,34.79-3.75,53.3-6.81-2.38-14.92-17.29-13.85-25.57l4.57,10.73C128.75,187,132,173,135.28,158.73c9,4.75,7.46,14.4,11.54,21.42a44.17,44.17,0,0,0,10.65-27.43c-3.74.61-7.11,1.65-10.46,1.62-8.86-.08-15,3.66-18.45,11.8a2,2,0,0,1-.36.74c-2.1,2-1.53,3.82-.68,6.49,1,3.12.42,6.88-.1,10.28-.16,1.08-2.3,1.86-3.54,2.78-.5-1.17-1.09-2.3-1.47-3.51a12.92,12.92,0,0,1-.3-2.59l-1.4-.29a33.2,33.2,0,0,1-2.14,6c-.85,1.47-2.44,3.42-3.74,3.45s-2.82-2-3.6-3.5c-.67-1.28-.43-3.05-.58-4.6l-1.52-.57a52,52,0,0,1-3.92,5.53c-.88,1-2.58,2.08-3.55,1.81-1.23-.34-2.84-1.94-2.94-3.12a9.06,9.06,0,0,1,1.36-5.76c2.36-3.25,1.37-5.62-1.22-7.73s-5.3-3.85-7.89-5.71c-8.88,7.62-19.63,26.32-22,37.85-1.63,7.85-2.22,15.47,2.51,22.66,1.16,1.75,1.53,4,2.26,6.07C67,228.68,63.46,223,61.2,216.36c-1.37-4-2.51-8.09-3.75-12.15Zm97.71-45.17c-3.84-5.87-10.11-9-16.38-12.13-5.5-2.78-11.93-4.81-16-9-5.58-5.8-9.33-13.37-13.87-20.19-2-3-3.91-5.9-5.89-8.85-1.46-2.19-3-1.63-4.81-.31a72.81,72.81,0,0,0-24.79,30.8C59.54,149.83,60,178.73,64.74,207.92c0,.11.47.16,1.8.56-.07-19.78,12.15-33.28,23.87-48,3.48,3.34,6.7,6.27,9.73,9.38,2.06,2.12,4,2.61,6.92,1.5,8.2-3.1,12.67-9.66,16.91-16.72a12.61,12.61,0,0,1,5.77-5.18C137.42,146.61,145.31,144.35,153.4,141.77ZM230.68,247.3l.42-.92-5.48-4.91,1.54-2.67c-2.53-.2-4.86.12-6.78-.62-8.44-3.3-16.83-6.75-25.11-10.44-14.33-6.37-26.32-15-29.3-31.9-.25-1.43-1.62-2.66-2.47-4l-1.61.83c2.24,5.84,3.94,12,6.83,17.45,5.38,10.22,14.88,15.81,25.06,20.41s20.4,9.43,30.61,14.13C226.45,245.63,228.58,246.43,230.68,247.3Zm23.9-3.81a95.19,95.19,0,0,0-8.83-5.93c-1-.54-2.84.45-4.29.73.51,1.7.49,4,1.62,5C246.25,245.81,250.11,245.63,254.58,243.49Zm-34-176.33.46-.93-4.47-4.69c-4.4-4.62-4.58-4.61-9,.91Zm26.64,184.71-9.66-8.48C236.84,249.59,240,252.09,247.18,251.87Zm-2-23.7c.4,5.93,4.44,5,8.33,5.76C251.68,230.11,249.66,227.85,245.18,228.17ZM164.63,145.4l1.23,0c2.46-6.37,2.46-6.37-.33-7.67C165.22,140.43,164.93,142.91,164.63,145.4Z" transform="translate(-55.69 -13.75)"/><path class="cls-1" d="M221.6,13.75c6.55,1.11,13.12,2.09,19.63,3.4a15,15,0,0,1,6,2.66,33.34,33.34,0,0,1,6,6.15,30,30,0,0,0,13.07,9.86l-5.94,0-.12.56c5.59,2.13,11.23,4.13,16.75,6.42,16.71,7,31.65,16.43,43.49,30.41,10,11.84,16.12,25.56,19.18,40.58,3.24,15.9,3.78,32,.08,47.92-4.8,20.66-15.25,37.39-34.74,47.09-11.8,5.87-24.62,7.55-37.75,6.9-8-.4-15.79-1.72-23.21-5-2.25-1-5-.93-7.79-1.39,4.52-9.24,6.8-19.36,5.45-30.08s-5.65-20.29-11.88-29.14c4.57,3.88,9.06,7.87,13.75,11.6,6.45,5.14,13.12,10,19.51,15.18a6.07,6.07,0,0,1,2.14,4.46c-.7,6.64-1.64,13.27-3,19.8a4.92,4.92,0,0,0,1.17,5c5.75,6.93,12.43,7.14,20.65,5,20.72-5.44,37.36-16,47.2-35.49,4.61-9.15,6.78-19.05,7.4-29.36a112.14,112.14,0,0,0-7.17-47.77C324,78.93,310.43,64.56,292.94,53.65c-12.25-7.64-25.66-12.49-39.53-16.2-3.19-.85-5.79-1-7.39,2.85-1.19,2.89-3.9,3-5.52.53-3-4.51-6.66-3.38-10.53-1.88-1.16.44-2.25,1-3.42,1.43-2.76.89-5,1-7-2.09-3.47-5.52-8.52-6.5-14.42-3-.53-1.41-.95-2.5-1.4-3.68a3.5,3.5,0,0,0-1.24.14c-2.63,1.49-5.17,3.17-7.87,4.52-3.93,2-7.93,2.88-12.26.69-.89-.45-2.6.6-3.88,1.09-1.47.56-2.9,1.79-4.34,1.78-2.22,0-4.44-.83-7.36-1.46,4.11-3.74,7.44-8.15,11.87-10.42s9.82-2.26,15.07-3.31l-1.94-4.08c7.36-1.27,15.28.15,20.73-5.84Z" transform="translate(-55.69 -13.75)"/><path class="cls-1" d="M165.69,114.69c-1.5,3.5-2.78,7.12-4.57,10.47-3.42,6.44-6.8,7.57-13,4-8.2-4.74-16.44-9.49-24.13-15-8-5.72-7.74-11.87-.19-18.16,5-4.17,10-8.4,9.26-16-.06-.62.68-1.42,1.22-2,6.06-6.17,12.22-12.25,18.18-18.51,1-1.07,1.44-2.83,1.87-4.35.78-2.77.94-5.81,2.2-8.32.79-1.56,3.27-3.46,4.72-3.26a4.56,4.56,0,0,1,3.89,6.12c-.67,2.34-2.27,4.41-3,6.74-1.34,4.12-3.37,8.35-3.31,12.5.13,9,1.39,18.08,2.23,27.12a5,5,0,0,0,.73,2.34,23.72,23.72,0,0,1,3.82,16.41ZM147.64,76.32c-.46,10.62-.89,20.81-1.32,30.79C150.45,100.79,151.76,78.76,147.64,76.32Zm2.78,25.35c.11,4.5,0,9.08,3.88,12.4C153.33,109.83,154.08,105.06,150.42,101.67Z" transform="translate(-55.69 -13.75)"/><path class="cls-1" d="M122.77,83.46c.65-6.35,1.24-12.18,1.85-18,.06-.52.06-1.23.39-1.53,3.27-3,6.6-6,10.44-9.4-.19,5.8-1.44,10.17-6.67,12.41C131.64,74.32,127.07,78.72,122.77,83.46Z" transform="translate(-55.69 -13.75)"/><path class="cls-1" d="M144.91,49.46l-5.29-3.66,22.89-11.1C159.59,40.62,152.06,46.68,144.91,49.46Z" transform="translate(-55.69 -13.75)"/><path class="cls-2" d="M254.58,243.49c-4.47,2.14-8.33,2.32-11.5-.24-1.13-.92-1.11-3.26-1.62-5,1.45-.28,3.28-1.27,4.29-.73A95.19,95.19,0,0,1,254.58,243.49Z" transform="translate(-55.69 -13.75)"/><path class="cls-2" d="M220.54,67.16l-13-4.71c4.45-5.52,4.63-5.53,9-.91L221,66.23Z" transform="translate(-55.69 -13.75)"/><path class="cls-2" d="M247.18,251.87c-7.14.22-10.34-2.28-9.66-8.48Z" transform="translate(-55.69 -13.75)"/><path class="cls-2" d="M245.18,228.17c4.48-.32,6.5,1.94,8.33,5.76C249.62,233.2,245.58,234.1,245.18,228.17Z" transform="translate(-55.69 -13.75)"/><path class="cls-2" d="M164.63,145.4c.3-2.49.59-5,.9-7.65,2.79,1.3,2.79,1.3.33,7.67Z" transform="translate(-55.69 -13.75)"/><path class="cls-2" d="M147.64,76.32c4.12,2.44,2.81,24.47-1.32,30.79C146.75,97.13,147.18,86.94,147.64,76.32Z" transform="translate(-55.69 -13.75)"/><path class="cls-2" d="M150.42,101.67c3.66,3.39,2.91,8.16,3.88,12.4C150.43,110.75,150.53,106.17,150.42,101.67Z" transform="translate(-55.69 -13.75)"/><path class="cls-1" d="M93.61,137c0-4.38,0-8.77-.11-13.15-.24-7.14-.66-14.27-.9-21.41a9.09,9.09,0,0,1,.85-2.77c.71.62,2,1.16,2,1.86,1.56,11.22,2.12,22.46-.23,33.66a11.54,11.54,0,0,1-.75,1.83Z" transform="translate(-55.69 -13.75)"/><path class="cls-1" d="M99.86,120l5.82,29.19C102,146.47,97.77,128.61,99.86,120Z" transform="translate(-55.69 -13.75)"/></svg>